<svg width="166" height="40" fill="none" xmlns="http://www.w3.org/2000/svg"><path d="M48.708 11.684h4.117v17.072h-4.117V11.684Zm5.75 10.626c0-4.223 2.526-6.742 6.424-6.742 3.897 0 6.423 2.52 6.423 6.742 0 4.222-2.47 6.756-6.423 6.756s-6.423-2.463-6.423-6.756Zm8.716 0c0-2.322-.893-3.688-2.292-3.688-1.4 0-2.279 1.408-2.279 3.688 0 2.28.865 3.66 2.279 3.66 1.413 0 2.292-1.296 2.292-3.646v-.014Zm5.681 7.277h3.953c.188.428.506.783.907 1.011.4.229.862.318 1.316.255 1.565 0 2.389-.872 2.389-2.14V26.35h-.083a3.964 3.964 0 0 1-1.528 1.744 3.822 3.822 0 0 1-2.219.565c-3.005 0-4.995-2.35-4.995-6.39 0-4.04 1.894-6.587 5.05-6.587a3.866 3.866 0 0 1 2.272.63 4.016 4.016 0 0 1 1.516 1.847v-2.35h4.118v12.807c0 3.083-2.65 4.997-6.56 4.997-3.638 0-5.902-1.675-6.136-4.011v-.014Zm8.578-7.291c0-2.055-.92-3.35-2.374-3.35-1.455 0-2.347 1.28-2.347 3.35 0 2.069.878 3.237 2.347 3.237 1.468 0 2.374-1.14 2.374-3.223v-.014Zm5.668 0c0-4.223 2.526-6.742 6.424-6.742 3.897 0 6.436 2.52 6.436 6.742 0 4.222-2.47 6.756-6.436 6.756-3.967 0-6.424-2.45-6.424-6.742v-.014Zm8.716 0c0-2.322-.893-3.688-2.292-3.688-1.4 0-2.21 1.422-2.21 3.716 0 2.294.865 3.66 2.264 3.66 1.4 0 2.238-1.31 2.238-3.66v-.028Zm5.709-9.557c-.01-.426.102-.846.324-1.207.222-.36.544-.645.924-.818.38-.172.802-.226 1.212-.152.409.073.789.27 1.089.564.301.295.51.674.6 1.09.09.417.058.851-.093 1.248-.151.398-.414.74-.754.985-.341.244-.745.379-1.161.387-.276.02-.552-.02-.812-.115a1.995 1.995 0 0 1-.7-.44 2.055 2.055 0 0 1-.469-.69 2.1 2.1 0 0 1-.16-.824v-.028Zm0 3.096h4.117v12.921h-4.117v-12.92Zm19.064 6.46c0 4.223-1.826 6.63-4.955 6.63a3.846 3.846 0 0 1-2.288-.576 3.99 3.99 0 0 1-1.555-1.817h-.083v6.362h-4.117V15.807h4.117v2.309h.083a4.012 4.012 0 0 1 1.524-1.864 3.866 3.866 0 0 1 2.291-.628c3.157.057 5.037 2.478 5.037 6.7l-.054-.028Zm-4.118 0c0-2.054-.92-3.363-2.361-3.363-1.441 0-2.36 1.323-2.374 3.364-.014 2.04.933 3.35 2.374 3.35s2.361-1.281 2.361-3.322v-.028Zm11.185-6.755c3.417 0 5.49 1.66 5.586 4.32h-3.747c0-.914-.741-1.49-1.88-1.49-1.14 0-1.647.45-1.647 1.11 0 .662.453.873 1.373 1.07l2.634.55c2.513.548 3.582 1.59 3.582 3.546 0 2.675-2.374 4.392-5.873 4.392-3.5 0-5.792-1.717-5.971-4.35h3.966c.125.958.866 1.52 2.074 1.52 1.207 0 1.756-.407 1.756-1.083 0-.676-.384-.816-1.372-1.028l-2.374-.52c-2.458-.521-3.748-1.858-3.748-3.829.028-2.533 2.238-4.18 5.641-4.18v-.028Zm19.64 13.188h-3.967v-2.407h-.082a3.675 3.675 0 0 1-1.363 2.005 3.517 3.517 0 0 1-2.287.683 4.278 4.278 0 0 1-1.836-.297 4.373 4.373 0 0 1-1.55-1.052 4.516 4.516 0 0 1-.984-1.617 4.59 4.59 0 0 1-.242-1.89v-8.346h4.117v7.376c0 1.534.769 2.35 2.046 2.35a2.087 2.087 0 0 0 1.581-.732 2.191 2.191 0 0 0 .505-1.703v-7.29h4.117l-.055 12.92Zm1.99-12.92h3.98v2.49h.082a3.752 3.752 0 0 1 1.337-1.991 3.589 3.589 0 0 1 2.245-.739 3.226 3.226 0 0 1 2.287.706 3.383 3.383 0 0 1 1.213 2.11h.082a3.967 3.967 0 0 1 1.466-2.088 3.802 3.802 0 0 1 2.405-.728 3.909 3.909 0 0 1 1.637.299c.519.216.987.542 1.375.956.389.414.688.907.879 1.448.19.54.267 1.115.226 1.688v8.797h-4.117v-7.67c0-1.408-.618-2.055-1.77-2.055a1.765 1.765 0 0 0-1.362.621 1.883 1.883 0 0 0-.437 1.461v7.643h-3.911V21.03c0-1.295-.617-1.998-1.743-1.998-.26 0-.517.056-.754.166a1.85 1.85 0 0 0-.622.468c-.172.2-.302.434-.379.689a1.96 1.96 0 0 0-.071.788v7.614h-4.117l.069-12.949ZM37.194 12.458a18.733 18.733 0 0 0-2.745-4.532 18.659 18.659 0 0 0-6.074-4.985 18.157 18.157 0 0 0-15.2-.653 18.55 18.55 0 0 0-6.457 4.447 19.122 19.122 0 0 0-4.116 6.77A19.493 19.493 0 0 0 3.75 29.06a18.92 18.92 0 0 0 5.062 6.057 17.856 17.856 0 0 0 4.392 2.576 17.98 17.98 0 0 0 6.958 1.407c4.926-.01 9.647-2.024 13.128-5.6 3.48-3.574 5.437-8.419 5.44-13.471a19.26 19.26 0 0 0-1.536-7.572ZM20.148 4.815c2.143 0 4.26.48 6.204 1.408a5.91 5.91 0 0 1-1.483.436 7.794 7.794 0 0 0-4.434 2.279 8.143 8.143 0 0 0-2.222 4.547A4.265 4.265 0 0 1 17 16.03a4.073 4.073 0 0 1-2.506 1.186 7.795 7.795 0 0 0-4.434 2.279 8.143 8.143 0 0 0-2.223 4.547 4.144 4.144 0 0 1-1.084 2.45 15.536 15.536 0 0 1 .877-14.639 14.984 14.984 0 0 1 5.38-5.185 14.533 14.533 0 0 1 7.152-1.88l-.014.028ZM8.798 29.883c.165-.155.33-.296.494-.465a7.786 7.786 0 0 0 2.223-4.546 4.153 4.153 0 0 1 1.194-2.562 3.845 3.845 0 0 1 2.485-1.21 7.794 7.794 0 0 0 4.434-2.28 8.142 8.142 0 0 0 2.222-4.546 4.157 4.157 0 0 1 1.194-2.689 3.896 3.896 0 0 1 2.511-1.168 7.444 7.444 0 0 0 4.118-2.013 14.703 14.703 0 0 1 3.239 3.913 1.193 1.193 0 0 1-.179.197 3.901 3.901 0 0 1-2.484 1.239 7.767 7.767 0 0 0-4.439 2.274 8.115 8.115 0 0 0-2.217 4.552 4.267 4.267 0 0 1-1.19 2.561 4.075 4.075 0 0 1-2.502 1.211 7.835 7.835 0 0 0-4.452 2.275 8.184 8.184 0 0 0-2.245 4.551 4.493 4.493 0 0 1-.673 1.929 15.052 15.052 0 0 1-3.733-3.224Zm11.35 5.432a14.53 14.53 0 0 1-4.117-.59c.458-.876.755-1.83.878-2.816a4.268 4.268 0 0 1 1.185-2.557 4.076 4.076 0 0 1 2.493-1.215 7.793 7.793 0 0 0 4.443-2.275 8.142 8.142 0 0 0 2.227-4.551 4.267 4.267 0 0 1 1.185-2.557 4.076 4.076 0 0 1 2.494-1.215 7.724 7.724 0 0 0 3.513-1.408c.579 2.25.647 4.604.2 6.885a15.415 15.415 0 0 1-2.777 6.27 14.938 14.938 0 0 1-5.188 4.375 14.549 14.549 0 0 1-6.536 1.584v.07Z" fill="#1D2130"/></svg>