<svg width="197" height="40" fill="none" xmlns="http://www.w3.org/2000/svg"><g clip-path="url(#a)" fill="#1D2130"><path d="M30.094 17.604a5.475 5.475 0 0 0-1.229 2.008 5.608 5.608 0 0 0-.283 2.357l-.026-.027a6.66 6.66 0 0 1-.36 2.768 6.5 6.5 0 0 1-1.457 2.354 6.258 6.258 0 0 1-2.283 1.502 6.105 6.105 0 0 1-2.685.371l.026.027a5.185 5.185 0 0 0-3.132.7 5.421 5.421 0 0 0-2.173 2.428 5.634 5.634 0 0 0-.424 3.276 5.54 5.54 0 0 0 1.48 2.931 5.265 5.265 0 0 0 2.844 1.522 5.173 5.173 0 0 0 3.176-.44 5.384 5.384 0 0 0 2.354-2.242c.542-.98.778-2.108.675-3.23l.028.026a6.659 6.659 0 0 1 .36-2.768 6.5 6.5 0 0 1 1.457-2.354 6.26 6.26 0 0 1 2.283-1.502 6.104 6.104 0 0 1 2.685-.37l-.028-.028a5.163 5.163 0 0 0 2.604-.437 5.332 5.332 0 0 0 2.077-1.675 5.56 5.56 0 0 0 1.038-2.5c.137-.91.048-1.841-.257-2.706a5.478 5.478 0 0 0-1.489-2.245 5.25 5.25 0 0 0-2.353-1.228 5.151 5.151 0 0 0-2.636.092 5.276 5.276 0 0 0-2.268 1.39h-.004ZM19.431 25.45l-.027-.026a5.103 5.103 0 0 0 2.288-.287 5.229 5.229 0 0 0 1.948-1.27 5.433 5.433 0 0 0 1.232-2.007c.262-.755.358-1.561.28-2.359l.028.027a6.66 6.66 0 0 1 .36-2.768 6.5 6.5 0 0 1 1.457-2.354 6.258 6.258 0 0 1 2.283-1.503 6.103 6.103 0 0 1 2.685-.37l-.028-.027a5.185 5.185 0 0 0 3.133-.697 5.42 5.42 0 0 0 2.175-2.428 5.636 5.636 0 0 0 .426-3.276 5.54 5.54 0 0 0-1.478-2.932 5.265 5.265 0 0 0-2.844-1.524 5.172 5.172 0 0 0-3.177.44 5.382 5.382 0 0 0-2.355 2.242 5.62 5.62 0 0 0-.676 3.23l-.026-.028a6.658 6.658 0 0 1-.36 2.768 6.5 6.5 0 0 1-1.456 2.354 6.254 6.254 0 0 1-2.284 1.503 6.103 6.103 0 0 1-2.685.37l.026.028a5.101 5.101 0 0 0-2.287.287 5.229 5.229 0 0 0-1.949 1.27 5.437 5.437 0 0 0-1.232 2.007 5.569 5.569 0 0 0-.28 2.359l-.026-.027a6.661 6.661 0 0 1-.36 2.768 6.502 6.502 0 0 1-1.457 2.354 6.258 6.258 0 0 1-2.284 1.502 6.103 6.103 0 0 1-2.684.371l.026.027a5.186 5.186 0 0 0-3.133.697A5.421 5.421 0 0 0 2.515 30.6a5.635 5.635 0 0 0-.426 3.275 5.54 5.54 0 0 0 1.478 2.933 5.265 5.265 0 0 0 2.844 1.524 5.173 5.173 0 0 0 3.177-.44 5.382 5.382 0 0 0 2.355-2.242c.542-.98.778-2.107.676-3.23l.027.027a6.658 6.658 0 0 1 .36-2.768 6.5 6.5 0 0 1 1.457-2.355 6.258 6.258 0 0 1 2.284-1.502 6.105 6.105 0 0 1 2.684-.37ZM9.743 22.46a5.467 5.467 0 0 0 1.229-2.009 5.6 5.6 0 0 0 .282-2.357l.027.027a6.661 6.661 0 0 1 .36-2.768 6.505 6.505 0 0 1 1.458-2.355 6.26 6.26 0 0 1 2.284-1.502 6.105 6.105 0 0 1 2.686-.37l-.028-.027a5.183 5.183 0 0 0 3.132-.697 5.42 5.42 0 0 0 2.174-2.428 5.634 5.634 0 0 0 .426-3.274 5.539 5.539 0 0 0-1.478-2.931A5.263 5.263 0 0 0 19.452.245a5.17 5.17 0 0 0-3.176.44 5.382 5.382 0 0 0-2.354 2.24 5.622 5.622 0 0 0-.677 3.23l-.025-.027a6.659 6.659 0 0 1-.36 2.768 6.499 6.499 0 0 1-1.457 2.354 6.26 6.26 0 0 1-2.284 1.502 6.104 6.104 0 0 1-2.684.37l.026.028a5.164 5.164 0 0 0-2.603.438 5.332 5.332 0 0 0-2.077 1.675 5.559 5.559 0 0 0-1.038 2.5A5.631 5.631 0 0 0 1 20.469a5.48 5.48 0 0 0 1.49 2.244 5.249 5.249 0 0 0 2.353 1.228 5.152 5.152 0 0 0 2.636-.092 5.278 5.278 0 0 0 2.267-1.39h-.003ZM54.518 7.595h4.292v21.54h-4.292V7.594ZM61.242 21.76a7.993 7.993 0 0 1 1.264-4.353 7.64 7.64 0 0 1 3.397-2.894 7.372 7.372 0 0 1 4.384-.458 7.514 7.514 0 0 1 3.891 2.133 7.896 7.896 0 0 1 2.085 4.003 8.044 8.044 0 0 1-.427 4.522 7.772 7.772 0 0 1-2.793 3.514 7.423 7.423 0 0 1-4.217 1.32 7.299 7.299 0 0 1-2.908-.568 7.484 7.484 0 0 1-2.469-1.684 7.753 7.753 0 0 1-1.644-2.539 7.938 7.938 0 0 1-.563-2.997Zm10.876 0a3.466 3.466 0 0 0-.6-1.86 3.31 3.31 0 0 0-1.495-1.21 3.2 3.2 0 0 0-1.895-.154 3.267 3.267 0 0 0-1.662.95 3.432 3.432 0 0 0-.876 1.74c-.12.656-.049 1.333.203 1.948s.674 1.14 1.213 1.509c.54.368 1.173.565 1.82.565.444.012.885-.07 1.296-.243.41-.172.782-.43 1.091-.758.31-.328.55-.718.705-1.146.156-.428.224-.885.2-1.342ZM93.52 14.382V28.39c0 4.957-3.75 7.052-7.555 7.052a7.13 7.13 0 0 1-3.878-.806 7.409 7.409 0 0 1-2.904-2.77l3.663-2.184a3.329 3.329 0 0 0 1.349 1.456c.583.332 1.25.472 1.913.403.424.06.855.022 1.262-.113.407-.134.78-.362 1.09-.665.31-.303.551-.674.704-1.086.152-.411.213-.853.177-1.293v-1.348a5.104 5.104 0 0 1-1.868 1.47 4.95 4.95 0 0 1-2.31.448 7.172 7.172 0 0 1-4.993-2.277 7.62 7.62 0 0 1-2.05-5.217c0-1.948.735-3.819 2.05-5.218a7.173 7.173 0 0 1 4.993-2.276 4.95 4.95 0 0 1 2.31.447 5.103 5.103 0 0 1 1.868 1.471v-1.505l4.18.003Zm-4.177 7.08a3.662 3.662 0 0 0-.514-2.027 3.505 3.505 0 0 0-1.526-1.382 3.374 3.374 0 0 0-2.016-.265 3.432 3.432 0 0 0-1.813.945 3.608 3.608 0 0 0-.989 1.83 3.681 3.681 0 0 0 .174 2.087c.26.662.705 1.23 1.279 1.629a3.396 3.396 0 0 0 1.943.61 3.15 3.15 0 0 0 1.329-.191 3.226 3.226 0 0 0 1.14-.73c.325-.324.582-.713.753-1.145a3.43 3.43 0 0 0 .24-1.36ZM95.951 21.76a7.993 7.993 0 0 1 1.264-4.353 7.64 7.64 0 0 1 3.397-2.894 7.37 7.37 0 0 1 4.384-.458 7.508 7.508 0 0 1 3.891 2.133 7.902 7.902 0 0 1 2.085 4.003 8.047 8.047 0 0 1-.427 4.522 7.77 7.77 0 0 1-2.793 3.514 7.423 7.423 0 0 1-4.217 1.32 7.297 7.297 0 0 1-2.908-.568 7.482 7.482 0 0 1-2.469-1.684 7.75 7.75 0 0 1-1.644-2.539 7.94 7.94 0 0 1-.563-2.997Zm10.876 0a3.464 3.464 0 0 0-.599-1.86 3.314 3.314 0 0 0-1.496-1.21 3.2 3.2 0 0 0-1.895-.154 3.264 3.264 0 0 0-1.662.95 3.438 3.438 0 0 0-.876 1.74 3.498 3.498 0 0 0 .203 1.948c.252.615.674 1.14 1.214 1.509a3.218 3.218 0 0 0 1.819.565c.444.012.885-.07 1.296-.243.41-.172.782-.43 1.091-.758.31-.328.55-.718.705-1.146a3.4 3.4 0 0 0 .2-1.342ZM113.122 10.428c0-.525.151-1.039.434-1.476a2.593 2.593 0 0 1 1.156-.978 2.504 2.504 0 0 1 1.488-.15c.5.102.959.355 1.319.726s.606.845.705 1.36c.099.515.049 1.049-.147 1.534-.195.486-.525.9-.948 1.192a2.523 2.523 0 0 1-1.432.448 2.565 2.565 0 0 1-1.813-.786 2.724 2.724 0 0 1-.762-1.87Zm.434 3.954h4.294v14.753h-4.3l.006-14.753ZM136.386 21.759a7.619 7.619 0 0 1-.406 2.87 7.446 7.446 0 0 1-1.444 2.49 7.208 7.208 0 0 1-2.259 1.728 7.017 7.017 0 0 1-2.731.7 5.227 5.227 0 0 1-2.328-.405 5.372 5.372 0 0 1-1.935-1.395v7.289h-4.293V14.382h4.293v1.386a5.382 5.382 0 0 1 1.936-1.394 5.222 5.222 0 0 1 2.327-.405 7.013 7.013 0 0 1 2.731.7 7.201 7.201 0 0 1 2.26 1.728 7.47 7.47 0 0 1 1.445 2.49c.317.921.454 1.897.404 2.872Zm-4.293 0a3.581 3.581 0 0 0-.615-1.926 3.424 3.424 0 0 0-1.545-1.255 3.311 3.311 0 0 0-1.961-.163 3.382 3.382 0 0 0-1.722.98 3.559 3.559 0 0 0-.908 1.8 3.619 3.619 0 0 0 .208 2.016c.261.637.698 1.18 1.255 1.562a3.337 3.337 0 0 0 1.884.585 3.18 3.18 0 0 0 1.347-.233c.428-.174.815-.44 1.137-.78.322-.34.569-.746.728-1.192.158-.445.224-.92.192-1.394ZM149.631 24.708c0 3.394-2.86 4.84-5.95 4.84a6.109 6.109 0 0 1-3.599-.782 6.375 6.375 0 0 1-2.554-2.73l3.719-2.183c.151.533.474.996.916 1.313.442.317.975.468 1.513.427 1.029 0 1.544-.324 1.544-.913 0-1.625-7.04-.767-7.04-5.872 0-3.217 2.634-4.839 5.61-4.839a6.108 6.108 0 0 1 3.208.793 6.349 6.349 0 0 1 2.371 2.364l-3.663 2.035a2.121 2.121 0 0 0-.769-.946 2.03 2.03 0 0 0-1.147-.352c-.744 0-1.204.298-1.204.826.006 1.683 7.045.56 7.045 6.02ZM165.316 14.382v14.754h-4.294v-1.387a4.891 4.891 0 0 1-1.834 1.407 4.76 4.76 0 0 1-2.256.393c-2.891 0-5.348-2.124-5.348-6.11v-9.057h4.293v8.408a2.498 2.498 0 0 0 .641 1.937c.237.255.525.454.844.583.32.129.662.184 1.004.163 1.574 0 2.661-.943 2.661-3.039v-8.047l4.289-.005ZM189.93 20.077v9.058h-4.293V20.46c0-1.475-.687-2.419-2.06-2.419-1.43 0-2.233 1.033-2.233 2.774v8.32h-4.291V20.46c0-1.475-.687-2.419-2.061-2.419-1.432 0-2.232 1.033-2.232 2.774v8.32h-4.293V14.381h4.293v1.357a4.416 4.416 0 0 1 1.699-1.388 4.277 4.277 0 0 1 2.136-.381 4.146 4.146 0 0 1 2.122.463 4.307 4.307 0 0 1 1.626 1.483 4.736 4.736 0 0 1 1.831-1.525 4.59 4.59 0 0 1 2.318-.421c3.286.001 5.438 2.42 5.438 6.108ZM193.562 14.291c1.759 0 3.186-1.47 3.186-3.284 0-1.814-1.427-3.285-3.186-3.285s-3.186 1.47-3.186 3.285c0 1.814 1.427 3.284 3.186 3.284Z"/></g><defs><clipPath id="a"><path fill="#fff" d="M0 0h196.967v40H0z"/></clipPath></defs></svg>