<svg width="188" height="40" fill="none" xmlns="http://www.w3.org/2000/svg"><g clip-path="url(#a)" fill="#1D2130"><path d="M61.134 31.866a4.138 4.138 0 0 1-2.648-.778 2.512 2.512 0 0 1-.756-.934 2.57 2.57 0 0 1-.242-1.186V13.96a.43.43 0 0 1 .117-.35.412.412 0 0 1 .342-.12h2.663c.302 0 .444.163.444.47v13.842c0 .615.27.923.825.923.235.01.47-.018.697-.081.317 0 .492.097.508.388l.237 2.024a.43.43 0 0 1-.078.34.414.414 0 0 1-.302.162c-.584.197-1.193.3-1.807.308ZM76.115 30.134a7.372 7.372 0 0 1-4.755 1.747 7.373 7.373 0 0 1-4.756-1.747 6.547 6.547 0 0 1-1.836-4.557c0-1.707.66-3.345 1.836-4.558a7.404 7.404 0 0 1 4.756-1.737c1.734 0 3.415.614 4.755 1.737a6.648 6.648 0 0 1 1.791 4.55 6.647 6.647 0 0 1-1.79 4.549v.016Zm-7.006-2.137c.62.575 1.428.893 2.266.893.838 0 1.646-.319 2.267-.893.562-.66.872-1.505.872-2.38s-.31-1.72-.872-2.38a3.338 3.338 0 0 0-2.267-.892c-.838 0-1.646.318-2.266.892a3.671 3.671 0 0 0-.872 2.38c0 .875.31 1.72.872 2.38ZM92.57 19.69c.301 0 .444.162.444.47v11.607a5.379 5.379 0 0 1-.42 2.284 5.273 5.273 0 0 1-1.34 1.877 6.571 6.571 0 0 1-4.613 1.619 7.303 7.303 0 0 1-4.296-1.214 4.806 4.806 0 0 1-1.368-1.399 4.915 4.915 0 0 1-.709-1.839c0-.324 0-.47.428-.47h2.664a.58.58 0 0 1 .315.108.597.597 0 0 1 .208.265c.172.492.517.9.967 1.15a3.648 3.648 0 0 0 1.775.42 2.75 2.75 0 0 0 1.096-.162c.351-.128.674-.326.95-.582a2.8 2.8 0 0 0 .745-2.024v-1.02a5.234 5.234 0 0 1-3.298 1.052 6.035 6.035 0 0 1-2.427-.413 6.136 6.136 0 0 1-2.075-1.351 6.549 6.549 0 0 1-1.782-4.501c0-1.68.639-3.293 1.782-4.5a6.184 6.184 0 0 1 2.078-1.34c.773-.3 1.597-.44 2.424-.409a5.253 5.253 0 0 1 3.377 1.117v-.26a.429.429 0 0 1 .112-.341.41.41 0 0 1 .332-.128l2.631-.016Zm-6.15 9.26a2.74 2.74 0 0 0 1.19-.23c.374-.165.71-.413.981-.725a4.02 4.02 0 0 0 .813-2.428 4.02 4.02 0 0 0-.813-2.428 2.775 2.775 0 0 0-.976-.714 2.723 2.723 0 0 0-1.18-.225 2.802 2.802 0 0 0-1.205.23c-.38.165-.72.412-.999.725a3.475 3.475 0 0 0-.855 2.428 3.542 3.542 0 0 0 .84 2.412c.278.312.619.559 1 .724.38.165.79.244 1.203.232ZM106.695 30.133a7.405 7.405 0 0 1-4.756 1.737 7.403 7.403 0 0 1-4.756-1.737 6.664 6.664 0 0 1-1.792-4.557c0-1.698.642-3.331 1.792-4.558a7.418 7.418 0 0 1 4.756-1.732c1.733 0 3.413.612 4.756 1.732a6.647 6.647 0 0 1 1.79 4.55 6.647 6.647 0 0 1-1.79 4.549v.016Zm-7.023-2.137c.304.295.662.526 1.054.679a3.11 3.11 0 0 0 1.228.211c.417.011.832-.061 1.221-.214a3.177 3.177 0 0 0 1.047-.676 3.726 3.726 0 0 0 .856-2.38c0-.872-.304-1.715-.856-2.38a3.177 3.177 0 0 0-1.047-.675 3.114 3.114 0 0 0-1.221-.215 3.11 3.11 0 0 0-1.228.212c-.392.152-.75.383-1.054.678a3.722 3.722 0 0 0-.857 2.38c0 .872.304 1.716.857 2.38ZM114.21 16.94a2.27 2.27 0 0 1-1.514.58 2.27 2.27 0 0 1-1.514-.58 1.985 1.985 0 0 1 0-2.85 2.315 2.315 0 0 1 1.514-.566c.554 0 1.09.2 1.514.566a1.984 1.984 0 0 1 .444 2.2 1.951 1.951 0 0 1-.444.65Zm.333 14.926a4.2 4.2 0 0 1-2.648-.778 2.588 2.588 0 0 1-.983-2.12V20.16a.417.417 0 0 1 .02-.189.41.41 0 0 1 .44-.28h2.663c.301 0 .444.161.444.469v7.641c0 .615.27.923.809.923.24.009.48-.019.713-.081.317 0 .491.097.507.388l.238 2.024a.433.433 0 0 1-.078.34.415.415 0 0 1-.302.162 5.9 5.9 0 0 1-1.823.308ZM126.544 19.302a6.098 6.098 0 0 1 2.441.405c.78.3 1.491.757 2.094 1.344a6.715 6.715 0 0 1 1.744 4.525c0 1.68-.623 3.296-1.744 4.525a6.15 6.15 0 0 1-2.09 1.357 6.054 6.054 0 0 1-2.445.407 5.378 5.378 0 0 1-3.313-1.052v5.844c0 .308-.158.454-.459.454h-2.664a.373.373 0 0 1-.339-.108.393.393 0 0 1-.104-.346V23.382a.86.86 0 0 0-.233-.717.824.824 0 0 0-.703-.238h-.523c-.349 0-.523-.13-.523-.389v-1.91a.523.523 0 0 1 .365-.534 4.665 4.665 0 0 1 1.712-.292 2.886 2.886 0 0 1 1.677.362c.511.289.926.726 1.192 1.257a5.34 5.34 0 0 1 1.794-1.221 5.248 5.248 0 0 1 2.121-.398Zm-2.472 8.694c.282.302.622.542.998.706a2.971 2.971 0 0 0 2.379 0 3.03 3.03 0 0 0 .998-.706 3.54 3.54 0 0 0 .872-2.477 3.499 3.499 0 0 0-.872-2.477 3.03 3.03 0 0 0-.998-.706 2.973 2.973 0 0 0-2.379 0 3.02 3.02 0 0 0-.998.706 3.63 3.63 0 0 0-.841 2.477 3.675 3.675 0 0 0 .841 2.477ZM140.303 31.864a7.52 7.52 0 0 1-4.075-1.003 3.916 3.916 0 0 1-1.239-1.219 4.003 4.003 0 0 1-.599-1.647c0-.323.111-.485.459-.485h2.331a.594.594 0 0 1 .523.356c.333.874 1.204 1.311 2.6 1.311.487.023.971-.077 1.412-.291a.933.933 0 0 0 .538-.793c0-.421-.253-.713-.761-.907a8.414 8.414 0 0 0-1.855-.405 17.323 17.323 0 0 1-2.219-.405 3.627 3.627 0 0 1-1.855-1.084 3.513 3.513 0 0 1-.727-2.66 3.52 3.52 0 0 1 .464-1.33c.243-.405.564-.756.945-1.029a6.427 6.427 0 0 1 3.835-1.036 6.888 6.888 0 0 1 3.742.955c.457.265.852.63 1.153 1.07.301.44.504.942.592 1.472 0 .323-.144.485-.429.485h-2.346a.484.484 0 0 1-.282-.07.503.503 0 0 1-.194-.22 1.605 1.605 0 0 0-.824-.859 2.744 2.744 0 0 0-1.364-.324 2.706 2.706 0 0 0-1.347.276.801.801 0 0 0-.365.292.825.825 0 0 0-.142.452c.01.222.09.434.226.606.137.172.325.294.534.35a8.461 8.461 0 0 0 1.887.485c.742.1 1.477.24 2.204.421a3.629 3.629 0 0 1 1.855 1.085 3.115 3.115 0 0 1 .776 2.218 3.282 3.282 0 0 1-.373 1.607 3.22 3.22 0 0 1-1.101 1.21 6.821 6.821 0 0 1-3.979 1.116ZM162.514 31.056a.45.45 0 0 1-.205.445.422.422 0 0 1-.16.057 6.008 6.008 0 0 1-1.791.308 3.456 3.456 0 0 1-1.767-.28 3.541 3.541 0 0 1-1.404-1.129 5.661 5.661 0 0 1-4.042 1.409 4.826 4.826 0 0 1-2.008-.336 4.92 4.92 0 0 1-1.702-1.138 5.325 5.325 0 0 1-1.095-1.804 5.421 5.421 0 0 1-.315-2.097v-6.33c0-.308.142-.47.443-.47h2.664c.3 0 .443.162.443.47v5.844c-.029.728.215 1.44.682 1.991.233.253.517.451.831.582.315.132.653.193.992.18.348.015.694-.04 1.021-.162.326-.123.627-.31.882-.551a2.61 2.61 0 0 0 .713-1.927v-5.957c0-.308.142-.47.443-.47h2.696c.301 0 .443.162.443.47v7.625c0 .631.27.939.794.939.245.01.491-.018.728-.081a.408.408 0 0 1 .475.207c.03.056.046.118.049.181l.19 2.024ZM187.704 31.056a.416.416 0 0 1-.197.454.399.399 0 0 1-.167.048c-.589.196-1.205.3-1.824.308a4.174 4.174 0 0 1-2.648-.777 2.519 2.519 0 0 1-.791-.925 2.565 2.565 0 0 1-.27-1.196v-3.805a2.903 2.903 0 0 0-.667-1.99 2.24 2.24 0 0 0-1.775-.762c-.3-.011-.599.047-.873.17a1.979 1.979 0 0 0-.712.543 2.92 2.92 0 0 0-.603 1.91v5.974c0 .308-.143.47-.443.47h-2.68a.407.407 0 0 1-.44-.282.43.43 0 0 1-.02-.188v-5.845a3.033 3.033 0 0 0-.618-1.99 2.072 2.072 0 0 0-.709-.562 2.025 2.025 0 0 0-.876-.2 2.262 2.262 0 0 0-1.743.713 2.709 2.709 0 0 0-.651 1.91v5.974a.416.416 0 0 1-.118.35.408.408 0 0 1-.341.12h-2.584c-.301 0-.445-.163-.445-.47v-7.625a.852.852 0 0 0-.232-.718.817.817 0 0 0-.702-.237h-.524c-.349 0-.524-.13-.524-.389v-1.91a.53.53 0 0 1 .091-.333.505.505 0 0 1 .275-.201 4.665 4.665 0 0 1 1.712-.292 2.928 2.928 0 0 1 1.621.329 3.01 3.01 0 0 1 1.201 1.16 5.33 5.33 0 0 1 1.861-1.173 5.257 5.257 0 0 1 2.166-.316 4.464 4.464 0 0 1 2.078.4c.653.298 1.229.749 1.678 1.316a5.236 5.236 0 0 1 1.888-1.335 5.134 5.134 0 0 1 2.266-.381 4.918 4.918 0 0 1 2.03.334 4.995 4.995 0 0 1 1.726 1.14 5.268 5.268 0 0 1 1.098 1.802c.243.67.349 1.385.314 2.099v3.124c0 .616.269.923.776.923.247.012.493-.015.73-.08.328 0 .501.129.523.388l.143 2.023ZM1.813 17.587c1.17-4.8 3.878-9.063 7.695-12.11A21.416 21.416 0 0 1 22.874.775c4.844 0 9.549 1.655 13.365 4.702 3.817 3.047 6.526 7.31 7.695 12.11h-1.902a15.138 15.138 0 0 0-8.989 2.8 4.517 4.517 0 0 1-.475.309h-.222a4.508 4.508 0 0 1-.476-.308 15.886 15.886 0 0 0-8.997-2.802c-3.204 0-6.337.976-8.996 2.802a4.518 4.518 0 0 1-.476.308h-.221a4.507 4.507 0 0 1-.476-.308 15.138 15.138 0 0 0-8.989-2.8H1.813Zm36.794 10.15a5.27 5.27 0 0 1 3.425-1.148h2.552v-5.197h-2.552a9.97 9.97 0 0 0-6.072 1.975 5.691 5.691 0 0 1-3.424 1.15 5.691 5.691 0 0 1-3.424-1.15 10.626 10.626 0 0 0-6.16-1.974c-2.201 0-4.35.689-6.158 1.974a5.691 5.691 0 0 1-3.424 1.15 5.69 5.69 0 0 1-3.424-1.15 9.97 9.97 0 0 0-6.151-1.975H1.163v5.197h2.552a5.269 5.269 0 0 1 3.425 1.149 10.594 10.594 0 0 0 6.15 1.975c2.2 0 4.347-.69 6.152-1.975a5.3 5.3 0 0 1 3.424-1.15 5.238 5.238 0 0 1 3.424 1.15 10.626 10.626 0 0 0 6.159 1.973c2.202 0 4.351-.688 6.158-1.973Zm0 9.294a5.27 5.27 0 0 1 3.425-1.15h2.552v-5.197h-2.552a9.971 9.971 0 0 0-6.072 1.975 5.69 5.69 0 0 1-3.424 1.15 5.69 5.69 0 0 1-3.424-1.15 10.625 10.625 0 0 0-6.16-1.973c-2.201 0-4.35.689-6.158 1.973a5.69 5.69 0 0 1-3.424 1.15 5.69 5.69 0 0 1-3.424-1.15 9.97 9.97 0 0 0-6.151-1.975H1.163v5.197h2.552a5.27 5.27 0 0 1 3.425 1.15 10.594 10.594 0 0 0 6.15 1.974c2.2 0 4.347-.689 6.152-1.974a5.3 5.3 0 0 1 3.424-1.15 5.238 5.238 0 0 1 3.424 1.15 10.626 10.626 0 0 0 6.159 1.973c2.202 0 4.351-.689 6.158-1.973Z"/></g><defs><clipPath id="a"><path fill="#fff" transform="translate(.745)" d="M0 0h187.141v40H0z"/></clipPath></defs></svg>