<svg width="166" height="40" fill="none" xmlns="http://www.w3.org/2000/svg"><g clip-path="url(#a)" fill="#1D2130"><path d="M47.612 12.374h4.174V29.71h-4.174V12.374Zm5.838 10.814c0-4.293 2.6-6.867 6.501-6.867 3.9 0 6.501 2.574 6.501 6.867 0 4.294-2.51 6.894-6.5 6.894-3.992 0-6.502-2.507-6.502-6.894Zm8.868 0c0-2.36-.898-3.746-2.328-3.746-1.43 0-2.314 1.333-2.314 3.746 0 2.414.884 3.734 2.314 3.734 1.43 0 2.354-1.32 2.354-3.72l-.026-.014Zm5.799 7.414h4.03c.184.445.504.816.913 1.057.408.24.882.338 1.35.276 1.599 0 2.431-.88 2.431-2.186v-2.4h.013a4.057 4.057 0 0 1-1.598 1.786c-.696.417-1.499.607-2.303.547-3.055 0-5.084-2.387-5.084-6.494 0-4.107 1.938-6.667 5.201-6.667a3.915 3.915 0 0 1 2.341.624 4.07 4.07 0 0 1 1.56 1.896h-.117v-2.413h4.135v12.987c0 3.134-2.705 5.094-6.684 5.094-3.614-.014-5.928-1.707-6.162-4.094l-.026-.013Zm8.737-7.414c0-2.093-.936-3.413-2.418-3.413-1.483 0-2.393 1.333-2.393 3.413s.897 3.307 2.393 3.307c1.495 0 2.418-1.133 2.418-3.307Zm5.786 0c0-4.293 2.6-6.867 6.5-6.867 3.902 0 6.502 2.574 6.502 6.867 0 4.294-2.522 6.894-6.501 6.894-3.979 0-6.475-2.507-6.475-6.894h-.026Zm8.867 0c0-2.36-.91-3.746-2.327-3.746-1.417 0-2.314 1.333-2.314 3.746 0 2.414.884 3.734 2.314 3.734 1.43 0 2.353-1.32 2.353-3.72l-.026-.014Zm5.825-9.72a2.23 2.23 0 0 1 .315-1.24 2.15 2.15 0 0 1 .937-.846c.387-.18.819-.236 1.238-.163.419.074.808.274 1.115.576.308.302.52.69.61 1.117.09.427.053.871-.105 1.276a2.172 2.172 0 0 1-.784.997 2.094 2.094 0 0 1-1.193.376 2.01 2.01 0 0 1-1.477-.588 2.108 2.108 0 0 1-.461-.681 2.152 2.152 0 0 1-.169-.81l-.026-.014Zm0 3.147h4.226v13.147h-4.16l-.066-13.147Zm19.425 6.573c0 4.28-1.872 6.76-5.057 6.76a3.916 3.916 0 0 1-2.325-.59 4.064 4.064 0 0 1-1.576-1.85h-.078v6.48h-4.174V16.656h4.148V19h.078a4.094 4.094 0 0 1 1.56-1.898 3.94 3.94 0 0 1 2.34-.635c3.277-.027 5.162 2.44 5.162 6.734l-.078-.014Zm-4.251 0c0-2.08-.95-3.426-2.419-3.426s-2.392 1.333-2.405 3.426c-.013 2.094.936 3.414 2.405 3.414 1.469 0 2.497-1.24 2.497-3.4l-.078-.014Zm11.376-6.88c3.498 0 5.67 1.693 5.695 4.413h-3.809c0-.946-.767-1.533-1.911-1.533-1.145 0-1.691.454-1.691 1.134 0 .68.482.893 1.444 1.093l2.678.56c2.601.56 3.641 1.627 3.641 3.613 0 2.667-2.406 4.48-5.981 4.48-3.576 0-5.904-1.76-6.072-4.44h4.043c.117.974.871 1.547 2.094 1.547 1.222 0 1.794-.4 1.794-1.107 0-.706-.39-.826-1.392-1.04l-2.418-.52c-2.509-.546-3.823-1.893-3.823-3.906.079-2.614 2.263-4.28 5.786-4.28l-.078-.014Zm20.023 13.44h-4.043v-2.466h-.078a3.76 3.76 0 0 1-1.397 2.039 3.601 3.601 0 0 1-2.334.694 4.36 4.36 0 0 1-1.836-.339 4.453 4.453 0 0 1-1.54-1.08 4.585 4.585 0 0 1-.975-1.63 4.662 4.662 0 0 1-.239-1.898v-8.44h4.174v7.52c0 1.547.793 2.387 2.093 2.387.305-.002.606-.072.882-.204.277-.131.523-.322.722-.56a2.233 2.233 0 0 0 .489-1.743v-7.4h4.161l-.079 13.12Zm2.016-13.133h4.057v2.533h.09a3.822 3.822 0 0 1 1.366-2.026 3.658 3.658 0 0 1 2.288-.747 3.272 3.272 0 0 1 2.308.686 3.426 3.426 0 0 1 1.255 2.1h.182c.259-.84.783-1.569 1.489-2.073a3.828 3.828 0 0 1 2.412-.713 3.96 3.96 0 0 1 1.669.298c.53.219 1.009.55 1.405.971a4.249 4.249 0 0 1 1.126 3.197v8.92h-4.2v-7.826c0-1.333-.612-2.08-1.794-2.08a1.778 1.778 0 0 0-.764.158 1.842 1.842 0 0 0-1.009 1.166 1.927 1.927 0 0 0-.061.796v7.787h-3.979v-7.867c0-1.334-.637-2.04-1.781-2.04a1.823 1.823 0 0 0-1.404.64 1.904 1.904 0 0 0-.387.703 1.95 1.95 0 0 0-.068.804v7.76h-4.174l-.026-13.147ZM39.357 13.508c0-2.654-.782-5.246-2.242-7.437a12.907 12.907 0 0 0-5.944-4.84A12.546 12.546 0 0 0 23.6.676 12.782 12.782 0 0 0 17.045 4.6H.818v35.121h34.26V23.308a13.15 13.15 0 0 0 3.159-4.432 13.448 13.448 0 0 0 1.12-5.368Zm-6.592 0a6.545 6.545 0 0 1-1.05 3.574 6.305 6.305 0 0 1-2.81 2.373 6.121 6.121 0 0 1-3.622.371 6.22 6.22 0 0 1-3.212-1.756 6.478 6.478 0 0 1-1.72-3.29 6.58 6.58 0 0 1 .355-3.715 6.395 6.395 0 0 1 2.308-2.887 6.157 6.157 0 0 1 3.483-1.084c1.66 0 3.252.676 4.427 1.878a6.511 6.511 0 0 1 1.84 4.536Zm-4.278 19.454H7.41v-21.6h6.424c-.125.708-.19 1.426-.196 2.146.004 3.496 1.36 6.849 3.77 9.32 2.411 2.473 5.68 3.864 9.09 3.867a12.263 12.263 0 0 0 1.989-.173v6.44Z"/></g><defs><clipPath id="a"><path fill="#fff" transform="translate(.013)" d="M0 0h165.987v40H0z"/></clipPath></defs></svg>