<svg width="166" height="40" fill="none" xmlns="http://www.w3.org/2000/svg"><g clip-path="url(#a)" fill="#1D2130"><path d="M40.136 9.757h3.8V28.71h-3.8V9.757ZM46.064 22.218a7.06 7.06 0 0 1 1.124-3.83 6.707 6.707 0 0 1 2.99-2.536 6.44 6.44 0 0 1 3.849-.385 6.586 6.586 0 0 1 3.405 1.896 6.965 6.965 0 0 1 1.811 3.536 7.11 7.11 0 0 1-.394 3.981 6.837 6.837 0 0 1-2.466 3.082 6.488 6.488 0 0 1-3.706 1.142 6.368 6.368 0 0 1-2.547-.511 6.554 6.554 0 0 1-2.158-1.493 6.817 6.817 0 0 1-1.43-2.242 7.003 7.003 0 0 1-.478-2.64Zm9.527 0a3.062 3.062 0 0 0-.523-1.64 2.906 2.906 0 0 0-1.312-1.066 2.797 2.797 0 0 0-1.662-.139 2.863 2.863 0 0 0-1.46.836 3.028 3.028 0 0 0-.769 1.532 3.087 3.087 0 0 0 .177 1.717 2.97 2.97 0 0 0 1.064 1.33 2.818 2.818 0 0 0 1.596.499 2.73 2.73 0 0 0 1.129-.22c.357-.153.68-.38.95-.669.268-.288.476-.63.611-1.005.136-.375.195-.775.174-1.175h.025ZM74.328 15.726v12.342c0 4.354-3.294 6.204-6.626 6.204a6.15 6.15 0 0 1-3.404-.698 6.429 6.429 0 0 1-2.538-2.45l3.206-1.915c.26.542.672.99 1.184 1.282a2.794 2.794 0 0 0 1.679.358c.37.047.746.009 1.1-.112.356-.12.68-.321.951-.587a2.63 2.63 0 0 0 .618-.95c.136-.36.194-.747.168-1.132v-1.194a4.491 4.491 0 0 1-1.638 1.288 4.34 4.34 0 0 1-2.023.391 6.227 6.227 0 0 1-4.479-1.92 6.677 6.677 0 0 1-1.855-4.638c0-1.739.667-3.407 1.855-4.637a6.227 6.227 0 0 1 4.48-1.92 4.34 4.34 0 0 1 2.022.39 4.491 4.491 0 0 1 1.638 1.288v-1.311l3.662-.08Zm-3.662 6.23a3.233 3.233 0 0 0-.45-1.783 3.077 3.077 0 0 0-1.336-1.217 2.948 2.948 0 0 0-1.766-.234 3.004 3.004 0 0 0-1.59.83c-.437.435-.74.995-.867 1.609a3.252 3.252 0 0 0 .15 1.836 3.13 3.13 0 0 0 1.117 1.434c.503.352 1.095.541 1.702.542a2.75 2.75 0 0 0 1.167-.167c.373-.14.714-.358 1-.643.287-.284.513-.627.663-1.008.15-.38.222-.788.21-1.2ZM76.47 22.218a7.06 7.06 0 0 1 1.12-3.827 6.705 6.705 0 0 1 2.988-2.536 6.44 6.44 0 0 1 3.844-.39 6.585 6.585 0 0 1 3.406 1.889 6.964 6.964 0 0 1 1.817 3.529 7.111 7.111 0 0 1-.384 3.979 6.839 6.839 0 0 1-2.455 3.088 6.49 6.49 0 0 1-3.698 1.154 6.38 6.38 0 0 1-2.554-.507 6.564 6.564 0 0 1-2.164-1.491 6.827 6.827 0 0 1-1.436-2.244 7.016 7.016 0 0 1-.485-2.644Zm9.526 0a3.063 3.063 0 0 0-.524-1.64 2.908 2.908 0 0 0-1.314-1.067 2.797 2.797 0 0 0-1.664-.136 2.865 2.865 0 0 0-1.459.84 3.028 3.028 0 0 0-.766 1.535 3.09 3.09 0 0 0 .182 1.718 2.968 2.968 0 0 0 1.07 1.326 2.819 2.819 0 0 0 1.6.493 2.73 2.73 0 0 0 1.128-.22c.357-.153.68-.38.949-.669.269-.288.477-.63.612-1.005.135-.375.194-.775.173-1.175h.013ZM91.507 12.25c0-.463.132-.914.38-1.298s.6-.683 1.012-.86a2.183 2.183 0 0 1 1.303-.133c.437.09.84.313 1.154.64.316.326.53.742.618 1.195a2.41 2.41 0 0 1-.129 1.349 2.32 2.32 0 0 1-.83 1.047c-.371.257-.807.394-1.253.394a2.242 2.242 0 0 1-1.587-.692 2.403 2.403 0 0 1-.668-1.643Zm.367 3.475h3.8v12.984h-3.8V15.725ZM111.942 22.217a6.764 6.764 0 0 1-.361 2.542 6.6 6.6 0 0 1-1.277 2.203 6.346 6.346 0 0 1-1.996 1.526 6.156 6.156 0 0 1-2.409.615 4.563 4.563 0 0 1-2.075-.343 4.726 4.726 0 0 1-1.726-1.244v6.414h-3.8V15.725h3.8v1.22a4.716 4.716 0 0 1 1.727-1.238 4.553 4.553 0 0 1 2.074-.336 6.163 6.163 0 0 1 2.4.611c.754.366 1.43.88 1.991 1.516a6.62 6.62 0 0 1 1.28 2.19c.283.81.409 1.669.372 2.53Zm-3.801 0a3.169 3.169 0 0 0-.541-1.699 3.007 3.007 0 0 0-1.358-1.105 2.9 2.9 0 0 0-1.724-.142 2.958 2.958 0 0 0-1.51.869c-.41.437-.687.99-.795 1.588a3.19 3.19 0 0 0 .188 1.78c.231.56.615 1.038 1.107 1.373a2.914 2.914 0 0 0 1.656.51 2.77 2.77 0 0 0 1.18-.207c.376-.155.714-.39.996-.69.281-.299.498-.657.636-1.05.137-.392.194-.81.165-1.227ZM123.508 24.814c0 2.99-2.534 4.263-5.219 4.263a5.344 5.344 0 0 1-3.158-.69 5.606 5.606 0 0 1-2.239-2.406l3.268-1.915c.13.469.41.876.796 1.156.385.279.85.413 1.32.379.899 0 1.355-.288 1.355-.813 0-1.43-6.169-.669-6.169-5.168 0-2.833 2.306-4.25 4.915-4.25a5.349 5.349 0 0 1 2.853.675 5.591 5.591 0 0 1 2.113 2.093l-3.268 1.784a1.903 1.903 0 0 0-.679-.829 1.81 1.81 0 0 0-1.006-.312c-.658 0-1.052.262-1.052.721 0 1.495 6.17.512 6.17 5.312ZM137.279 15.725V28.71h-3.801v-1.22c-.432.54-.98.967-1.601 1.248-.62.28-1.296.405-1.972.365-2.534 0-4.7-1.875-4.7-5.377v-8h3.801v7.41c-.03.31.006.622.104.916.098.295.257.563.465.788.208.224.462.4.742.513.28.113.581.162.88.143 1.369 0 2.331-.839 2.331-2.623v-7.148h3.751ZM158.814 20.735v7.975h-3.8v-7.634c0-1.311-.596-2.124-1.799-2.124-1.204 0-1.964.905-1.964 2.44v7.318h-3.801v-7.634c0-1.311-.595-2.124-1.799-2.124-1.203 0-1.964.905-1.964 2.44v7.318h-3.8V15.725h3.8v1.194a3.904 3.904 0 0 1 1.497-1.215 3.76 3.76 0 0 1 1.874-.333 3.605 3.605 0 0 1 1.858.403 3.748 3.748 0 0 1 1.422 1.302c.418-.579.971-1.04 1.607-1.337a4.002 4.002 0 0 1 2.029-.368c2.965 0 4.84 2.125 4.84 5.364ZM17.496 6.347V.773H.52V39.07h16.976v-5.574c-3.478 0-6.813-1.43-9.272-3.976-2.46-2.546-3.84-5.999-3.84-9.6 0-3.6 1.38-7.052 3.84-9.598 2.459-2.546 5.794-3.976 9.272-3.976ZM17.497 6.348v27.15c3.478 0 6.813-1.43 9.272-3.977 2.459-2.545 3.84-5.998 3.84-9.599 0-3.6-1.381-7.053-3.84-9.598-2.46-2.546-5.794-3.976-9.272-3.976ZM162.007 15.646c1.54 0 2.787-1.291 2.787-2.885 0-1.594-1.247-2.886-2.787-2.886-1.539 0-2.787 1.292-2.787 2.886s1.248 2.886 2.787 2.886Z"/></g><defs><clipPath id="a"><path fill="#fff" transform="translate(.005)" d="M0 0h165.725v40H0z"/></clipPath></defs></svg>