<svg width="36" height="36" fill="none" xmlns="http://www.w3.org/2000/svg"><path fill-rule="evenodd" clip-rule="evenodd" d="M11.506 17.434A7.65 7.65 0 0 1 6.75 10.35 7.648 7.648 0 0 1 14.4 2.7a7.648 7.648 0 0 1 7.65 7.65 7.65 7.65 0 0 1-4.756 7.084 12.598 12.598 0 0 1 6.758 4.166H19.72l-.149.004c-1.378.076-2.472 1.204-2.472 2.584V29.7H1.8c0-5.963 4.142-10.958 9.706-12.266Zm6.936-5.237C17.976 14.021 16.31 15.3 14.4 15.3c-1.91 0-3.575-1.279-4.042-3.103l2.02-.497a2.077 2.077 0 0 0 2.022 1.557c.957 0 1.79-.643 2.022-1.557l2.02.497Z" fill="#1D2130"/><path fill-rule="evenodd" clip-rule="evenodd" d="M18.9 24.914c0-.836.678-1.514 1.515-1.514h11.37c.837 0 1.515.678 1.515 1.514v6.197c0 .837-.678 1.515-1.514 1.515H20.415a1.514 1.514 0 0 1-1.515-1.514v-6.198Zm4.292 7.712h5.816c-.374 0-1.287.617-1.991 1.137a1.483 1.483 0 0 1-1.794-.048c-.64-.51-1.488-1.089-2.03-1.089Zm-.483-3.69c.535 0 .969-.413.969-.923s-.434-.923-.97-.923c-.535 0-.969.413-.969.923s.434.922.97.922Zm3.392 0c.535 0 .97-.413.97-.923s-.435-.923-.97-.923c-.535 0-.97.413-.97.923s.435.922.97.922Zm4.36-.923c0 .51-.433.922-.968.922-.536 0-.97-.412-.97-.922s.434-.923.97-.923c.535 0 .969.413.969.923Z" fill="url(#a)"/><defs><radialGradient id="a" cx="0" cy="0" r="1" gradientUnits="userSpaceOnUse" gradientTransform="rotate(56.764 8.851 9.292) scale(61.5658 216.908)"><stop offset=".175" stop-color="#D798E1"/><stop offset=".276" stop-color="#9B9FFF"/><stop offset=".499" stop-color="#AED3FF"/><stop offset=".565" stop-color="#C9D4EF"/><stop offset=".657" stop-color="#CACFFA"/></radialGradient></defs></svg>