<svg width="36" height="36" fill="none" xmlns="http://www.w3.org/2000/svg"><path fill-rule="evenodd" clip-rule="evenodd" d="m27.415 5.776-1.972 1.972L24.3 8.891V6.3h-8.1C9.738 6.3 4.5 11.538 4.5 18c0 2.974 1.11 5.69 2.938 7.754l-1.912 1.912A14.347 14.347 0 0 1 1.8 18c0-7.953 6.447-14.4 14.4-14.4H29.59l-2.176 2.176Z" fill="url(#a)"/><path d="m24.006 21.106-3.182-1.238s-.607-.235-.842-.466c-.151-.15-.141-.5-.007-.948.134-.448 1.765-2.27 1.765-3.926 0-2.556-1.683-4.628-3.758-4.628-2.073 0-3.755 2.073-3.755 4.628 0 1.586 1.454 3.476 1.633 3.818.18.345.135.868-.005 1.026-.213.238-.99.477-.99.477l-2.87 1.276c-.67.24-1.195.87-1.195 1.584v.337c0 .778.631 1.254 1.408 1.254H23.79c.776 0 1.41-.477 1.41-1.254v-.337c.001-.713-.524-1.363-1.194-1.603Z" fill="#1D2130"/><path d="M19.8 29.7c6.462 0 11.7-5.238 11.7-11.7 0-2.974-1.11-5.69-2.938-7.754l1.912-1.912A14.347 14.347 0 0 1 34.2 18c0 7.953-6.447 14.4-14.4 14.4H6.408l5.292-5.292V29.7h8.1Z" fill="url(#b)"/><defs><radialGradient id="a" cx="0" cy="0" r="1" gradientUnits="userSpaceOnUse" gradientTransform="rotate(60.786 42.242 -38.476) scale(133.427 436.828)"><stop offset=".175" stop-color="#D798E1"/><stop offset=".276" stop-color="#9B9FFF"/><stop offset=".499" stop-color="#AED3FF"/><stop offset=".565" stop-color="#C9D4EF"/><stop offset=".657" stop-color="#CACFFA"/></radialGradient><radialGradient id="b" cx="0" cy="0" r="1" gradientUnits="userSpaceOnUse" gradientTransform="rotate(60.785 40.51 -32.181) scale(133.429 436.838)"><stop offset=".175" stop-color="#D798E1"/><stop offset=".276" stop-color="#9B9FFF"/><stop offset=".499" stop-color="#AED3FF"/><stop offset=".565" stop-color="#C9D4EF"/><stop offset=".657" stop-color="#CACFFA"/></radialGradient></defs></svg>