<svg width="53" height="48" fill="none" xmlns="http://www.w3.org/2000/svg"><path fill-rule="evenodd" clip-rule="evenodd" d="M29.987 3.487c0 1.43-.86 2.659-2.092 3.197v3.08h15.337a1.4 1.4 0 0 1 1.4 1.4v22.304a1.4 1.4 0 0 1-1.4 1.4h-9.758v4.184h2.784a1.4 1.4 0 0 1 1.4 1.4v5.568a1.4 1.4 0 0 1-1.4 1.4H16.743a1.4 1.4 0 0 1-1.4-1.4v-5.568a1.4 1.4 0 0 1 1.4-1.4h2.784v-4.184H9.77a1.4 1.4 0 0 1-1.4-1.4V11.163a1.4 1.4 0 0 1 1.4-1.4h15.336v-3.08a3.488 3.488 0 1 1 4.882-3.196Zm-7.67 18.829a2.79 2.79 0 1 1-5.579 0 2.79 2.79 0 0 1 5.58 0Zm11.158 2.789a2.79 2.79 0 1 0 0-5.579 2.79 2.79 0 0 0 0 5.579ZM47.42 27.895a5.579 5.579 0 1 0 0-11.158v11.158ZM5.58 27.894a5.579 5.579 0 1 1 0-11.157v11.157Z" fill="#6B7CFF"/></svg>