<svg width="56" height="56" fill="none" xmlns="http://www.w3.org/2000/svg"><path fill-rule="evenodd" clip-rule="evenodd" d="M5.6 5.6a2.8 2.8 0 0 0-2.8 2.8v22.4a2.8 2.8 0 0 0 2.8 2.8H42a2.8 2.8 0 0 0 2.8-2.8V8.4A2.8 2.8 0 0 0 42 5.6H5.6Zm26.6 28H15.4c1.836 0 4.877 2.409 6.752 4.067.952.841 2.391.897 3.383.104 2.072-1.66 5.414-4.17 6.664-4.17Z" fill="#6B7CFF"/><path fill-rule="evenodd" clip-rule="evenodd" d="m13.51 22.4.663-1.94h3.896l.647 1.94h2.233l-4.004-10.965h-1.679L11.277 22.4h2.233Zm3.99-3.742h-2.727l1.387-3.989 1.34 3.989ZM36.4 12.6H23.8V14h12.6v-1.4Zm0 7H23.8V21h12.6v-1.4Zm-25.2 7h25.2V28H11.2v-1.4Z" fill="#fff"/><path fill-rule="evenodd" clip-rule="evenodd" d="M19.6 38.396c.933.681 1.83 1.432 2.552 2.07.952.842 2.391.898 3.383.104 2.064-1.653 5.39-4.152 6.65-4.17H44.8a2.8 2.8 0 0 0 2.8-2.8v-9.8h3.36a2.24 2.24 0 0 1 2.24 2.24v18.253a2.24 2.24 0 0 1-2.24 2.24H21.84a2.24 2.24 0 0 1-2.24-2.24v-5.897Zm10.08 8.137h13.44c-.998 0-3.661 2.029-5.32 3.376-.797.647-1.964.602-2.728-.084-1.502-1.345-3.927-3.292-5.392-3.292Z" fill="#6B7CFF"/></svg>