<svg width="58" height="62" fill="none" xmlns="http://www.w3.org/2000/svg"><g filter="url(#a)"><path fill-rule="evenodd" clip-rule="evenodd" d="M33.8 21.277V5.384c-.45-.152-.913-.29-1.376-.42a22.41 22.41 0 0 0-5.792-.764c-.858 0-1.7.053-2.532.15-2.034.229-3.984.737-5.818 1.471 0 0 15.112 14.902 15.518 15.456Zm12.17-5.982c.24.416.467.839.678 1.261L35.366 27.795c.113-.675 0-21.856 0-21.856a22.296 22.296 0 0 1 5.157 3.056c.655.517 1.29 1.077 1.896 1.68a22.222 22.222 0 0 1 3.552 4.62Zm-18.068 2.54L16.622 6.593c-.43.215-.855.44-1.267.679a22.175 22.175 0 0 0-4.64 3.534 21.625 21.625 0 0 0-1.685 1.891 22.215 22.215 0 0 0-3.07 5.14s21.261-.112 21.942-.004Zm-6.564 1.597H5.386a22.07 22.07 0 0 0-1.185 7.14c0 .854.052 1.695.15 2.522.23 2.029.737 3.971 1.479 5.793 0 0 14.95-15.057 15.508-15.455Zm-14.8 17.1 11.275-11.24c-.109.673.004 21.52.006 21.857v.004a22.076 22.076 0 0 1-5.156-3.054 22.382 22.382 0 0 1-1.897-1.679 22.005 22.005 0 0 1-3.551-4.625 21.352 21.352 0 0 1-.678-1.263Zm32.042-1.047a11.194 11.194 0 0 0-4.941 8.383l-8.45-8.418c.387.064 7.397.055 13.39.035Zm4.22-1.707H31.86c.559-.402 15.511-15.459 15.511-15.459a22.067 22.067 0 0 1 1.478 5.795c.096.828.151 1.67.151 2.525 0 2-.273 3.927-.773 5.768a24.24 24.24 0 0 1-.415 1.371h-1.01a11.27 11.27 0 0 0-4.003 0Zm-9.117 12.39c.065.532.167 1.053.304 1.56-1.558.55-3.193.93-4.891 1.122-.828.097-1.673.15-2.528.15a22.07 22.07 0 0 1-5.792-.77 22.563 22.563 0 0 1-1.375-.415V31.92c.332.462 10.674 10.684 14.282 14.247Z" fill="#6B7CFF"/><circle cx="44.8" cy="44.8" r="8.4" fill="#6B7CFF"/><path fill-rule="evenodd" clip-rule="evenodd" d="m49.152 42.163-.99-.99-4.95 4.95-2.475-2.475-.99.99 3.465 3.464 5.94-5.94Z" fill="#FAFBFF"/></g><defs><filter id="a" x=".2" y="4.2" width="57" height="57" filterUnits="userSpaceOnUse" color-interpolation-filters="sRGB"><feFlood flood-opacity="0" result="BackgroundImageFix"/><feColorMatrix in="SourceAlpha" values="0 0 0 0 0 0 0 0 0 0 0 0 0 0 0 0 0 0 127 0" result="hardAlpha"/><feOffset dy="4"/><feGaussianBlur stdDeviation="2"/><feComposite in2="hardAlpha" operator="out"/><feColorMatrix values="0 0 0 0 0 0 0 0 0 0 0 0 0 0 0 0 0 0 0.25 0"/><feBlend in2="BackgroundImageFix" result="effect1_dropShadow_281_700"/><feBlend in="SourceGraphic" in2="effect1_dropShadow_281_700" result="shape"/></filter></defs></svg>