<svg width="48" height="48" fill="none" xmlns="http://www.w3.org/2000/svg"><g clip-path="url(#a)" fill="#6B7CFF"><path d="M24 0C13.881 0 5.647 8.234 5.647 18.353v16.94a4.24 4.24 0 0 0 4.236 4.236 4.24 4.24 0 0 0 4.235-4.235V21.177a4.24 4.24 0 0 0-4.235-4.236 4.19 4.19 0 0 0-1.353.242C9.133 9.166 15.834 2.823 24 2.823c8.163 0 14.862 6.337 15.47 14.348a4.159 4.159 0 0 0-1.352-.23 4.24 4.24 0 0 0-4.235 4.236v14.117a4.24 4.24 0 0 0 4.235 4.236c.498 0 .968-.102 1.412-.26v1.671c0 .78-.634 1.412-1.412 1.412H27.976c-.585-1.64-2.137-2.824-3.976-2.824a4.24 4.24 0 0 0-4.235 4.236A4.24 4.24 0 0 0 24 48c1.838 0 3.39-1.184 3.976-2.824h10.142a4.24 4.24 0 0 0 4.235-4.235V18.353C42.353 8.233 34.12 0 24 0ZM45.177 20.025v16.42C46.817 35.862 48 34.31 48 32.472V24c0-1.838-1.184-3.39-2.823-3.975ZM0 24v8.47c0 1.839 1.184 3.391 2.823 3.976V20.025C1.184 20.61 0 22.162 0 24Z"/></g><defs><clipPath id="a"><path fill="#fff" d="M0 0h48v48H0z"/></clipPath></defs></svg>