<svg width="56" height="56" fill="none" xmlns="http://www.w3.org/2000/svg"><g fill-rule="evenodd" clip-rule="evenodd" fill="#6B7CFF"><path d="M11.2 16.8c0 .412-.06.81-.17 1.186l7.364 4.252c-.48.8-.865 1.664-1.135 2.578l-7.884-4.552A4.2 4.2 0 1 1 11.2 16.8Zm15.4 22.313a11.312 11.312 0 0 0 2.8 0v7.326A4.202 4.202 0 0 1 28 54.6a4.2 4.2 0 0 1-1.4-8.16v-7.327Zm12.14-14.297a11.138 11.138 0 0 0-1.134-2.578l7.364-4.252a4.2 4.2 0 1 1 1.655 2.278l-7.884 4.552Z"/><path d="M29.4 13.844a6.3 6.3 0 1 0-2.8 0v5.872a8.402 8.402 0 0 0-5.448 13.151l-5.899 5.899a6.3 6.3 0 1 0 1.98 1.98l5.9-5.9A8.362 8.362 0 0 0 28 36.4a8.362 8.362 0 0 0 4.867-1.553l5.899 5.9a6.3 6.3 0 1 0 1.98-1.98l-5.9-5.9A8.402 8.402 0 0 0 29.4 19.716v-5.872Z"/></g></svg>