<svg width="140" height="32" fill="none" xmlns="http://www.w3.org/2000/svg"><g clip-path="url(#a)"><path d="M2.178 5.328v6.4c0 1.05 0 2.23-2.178 2.23v3.439c2.178 0 2.178 1.178 2.178 2.229v6.4c0 4.967 2.722 5.328 7.35 5.328V27.49c-2.179 0-2.995-.321-2.995-1.56v-6.338c0-1.463.1-2.992-1.177-3.916 1.278-.924 1.177-2.452 1.177-3.917V5.424c0-1.238.817-1.56 2.995-1.56V0C4.9 0 2.178.36 2.178 5.328Zm12.247-.207c-1.19 1.005-1.785 2.449-1.785 4.33v1.69h-2.486v3.532h2.486V27.47h5.402V14.673h3.346V11.14h-3.346V9.936c0-.613.18-1.086.541-1.418.36-.332.877-.497 1.546-.497l2.008.005V3.928s-2.998-.033-3.427-.033c-1.304 0-3.095.219-4.285 1.226Zm10.088 2.89h5.402V3.928h-5.402v4.083Zm0 19.46h5.402V11.14h-5.402v16.33Zm18.723-16.632c-1.02 0-1.945.23-2.773.687a6.114 6.114 0 0 0-2.087 1.909l-.207-2.294h-5.052V27.47h5.37V15.73c.276-.302.608-.54.996-.71.387-.169.83-.256 1.33-.256.797 0 1.4.194 1.81.58.408.389.613 1.049.613 1.985v10.142h5.386V17.345c0-2.264-.476-3.914-1.426-4.95-.95-1.038-2.271-1.556-3.96-1.556Zm21.674 8.58c-1.014-.779-2.574-1.366-4.677-1.758-1.338-.24-2.229-.514-2.669-.816-.44-.3-.661-.669-.661-1.101 0-.453.19-.823.573-1.116.382-.292.855-.439 1.418-.439.765 0 1.32.167 1.665.499.345.332.518.82.518 1.463h5.227l.032-.09c.064-1.541-.584-2.794-1.944-3.765-1.36-.971-3.188-1.457-5.482-1.457-2.178 0-3.904.501-5.18 1.502-1.274 1.002-1.911 2.22-1.911 3.658 0 1.358.51 2.43 1.53 3.215 1.02.785 2.533 1.363 4.541 1.736 1.275.251 2.154.535 2.637.852.484.317.725.678.725 1.078 0 .493-.186.875-.558 1.14-.371.266-.918.401-1.64.401-.871 0-1.544-.172-2.016-.514-.473-.34-.72-.9-.741-1.674h-4.876l-.031.09c-.064 1.389.586 2.647 1.952 3.773 1.365 1.127 3.22 1.69 5.569 1.69 2.263 0 4.081-.475 5.457-1.427 1.377-.95 2.064-2.159 2.064-3.629 0-1.427-.508-2.531-1.522-3.31Zm19.227 1.185h-.096l-2.835-9.461H77.81l-2.805 9.538h-.095l-1.896-9.538h-4.972l4.063 16.328h4.543l2.82-8.662h.095l2.805 8.662h4.557l4.048-16.328h-4.972l-1.865 9.461Zm15.981-9.765c-2.56-.01-4.53.773-5.905 2.348-1.377 1.574-2.064 3.604-2.064 6.088v.574c0 2.274.757 4.166 2.27 5.675 1.513 1.51 3.54 2.264 6.08 2.264 1.37 0 2.653-.173 3.848-.52 1.195-.347 2.17-.782 2.924-1.305l-1.275-3.11c-.935.374-1.708.634-2.319.786-.611.152-1.427.227-2.446.227-1.01 0-1.816-.27-2.422-.807-.606-.54-.966-1.226-1.084-2.061l.033-.091h9.847v-2.673c0-2.273-.665-4.074-1.992-5.403-1.326-1.328-3.159-1.992-5.495-1.992Zm2.231 6.883h-4.638l-.047-.075c.085-.876.322-1.575.71-2.098.387-.522.969-.784 1.745-.784.764 0 1.326.22 1.689.664.361.442.542 1.076.542 1.9l-.001.393Zm15.843-6.883c-2.561-.01-4.528.773-5.905 2.348-1.375 1.574-2.064 3.604-2.064 6.088v.574c0 2.274.757 4.166 2.271 5.675 1.515 1.51 3.54 2.264 6.079 2.264 1.371 0 2.654-.173 3.85-.52 1.195-.347 2.169-.782 2.923-1.305l-1.274-3.11c-.935.374-1.707.634-2.319.786-.612.152-1.427.227-2.447.227-1.009 0-1.816-.27-2.421-.807-.607-.54-.967-1.226-1.085-2.061l.032-.091h9.848v-2.673c0-2.273-.664-4.074-1.992-5.403-1.328-1.328-3.159-1.992-5.496-1.992Zm2.23 6.883h-4.636l-.048-.075c.086-.876.321-1.575.709-2.098.386-.522.969-.784 1.745-.784.765 0 1.328.22 1.69.664.363.442.542 1.076.542 1.9v.394h-.002Zm16.323 5.513c-.668 0-1.185-.165-1.546-.497-.36-.332-.542-.806-.542-1.42v-6.617h2.802V11.17h-2.802V3.902h-5.401v7.267h-2.487V14.7h2.487v7.102c0 1.882.594 3.326 1.784 4.332 1.189 1.008 2.979 1.226 4.286 1.226.429 0 3.427-.033 3.427-.033V23.23l-2.008.005Z" fill="#fff"/></g><defs><clipPath id="a"><path fill="#fff" d="M0 0h139.429v32H0z"/></clipPath></defs></svg>