<svg width="140" height="33" fill="none" xmlns="http://www.w3.org/2000/svg"><path d="M2.178 5.976v6.312c0 1.035 0 2.198-2.178 2.198v3.391c2.178 0 2.178 1.163 2.178 2.199v6.31c0 4.9 2.722 5.255 7.35 5.255v-3.81c-2.179 0-2.995-.316-2.995-1.538v-6.25c0-1.443.1-2.95-1.177-3.862 1.278-.91 1.177-2.418 1.177-3.862V6.07c0-1.22.817-1.538 2.995-1.538V.723c-4.628-.001-7.35.354-7.35 5.253Zm12.247-.204c-1.19.991-1.785 2.415-1.785 4.27v1.667h-2.486v3.482h2.486v12.62h5.402V15.19h3.346V11.71h-3.346V10.52c0-.605.18-1.07.541-1.398.36-.327.877-.49 1.546-.49l2.008.005V4.596s-2.998-.033-3.427-.033c-1.304 0-3.095.216-4.285 1.209Zm10.088 2.85h5.402V4.596h-5.402v4.026Zm0 19.19h5.402V11.708h-5.402V27.81ZM43.236 11.41c-1.02 0-1.945.226-2.773.677a6.083 6.083 0 0 0-2.087 1.882l-.207-2.261h-5.052V27.81h5.37V16.234c.276-.298.608-.533.996-.7a3.334 3.334 0 0 1 1.33-.253c.797 0 1.4.191 1.81.573.408.382.613 1.033.613 1.957v10.001h5.386v-9.986c0-2.232-.476-3.86-1.426-4.882-.95-1.022-2.271-1.533-3.96-1.533Zm21.674 8.46c-1.014-.768-2.574-1.347-4.677-1.733-1.338-.237-2.229-.507-2.669-.804-.44-.297-.661-.66-.661-1.086 0-.448.19-.812.573-1.1.382-.289.855-.434 1.418-.434.765 0 1.32.165 1.665.492.345.328.518.809.518 1.443h5.227l.032-.088c.064-1.52-.584-2.756-1.944-3.714-1.36-.957-3.188-1.437-5.482-1.437-2.178 0-3.904.495-5.18 1.482-1.274.988-1.911 2.19-1.911 3.607 0 1.34.51 2.397 1.53 3.17 1.02.775 2.533 1.345 4.541 1.712 1.275.248 2.154.528 2.637.84.484.313.725.669.725 1.063 0 .487-.186.863-.558 1.124-.371.263-.918.396-1.64.396-.871 0-1.544-.17-2.016-.506-.473-.337-.72-.888-.741-1.652h-4.876l-.031.089c-.064 1.37.586 2.61 1.952 3.72 1.365 1.112 3.22 1.667 5.569 1.667 2.263 0 4.081-.468 5.457-1.407 1.377-.937 2.064-2.129 2.064-3.578 0-1.408-.508-2.497-1.522-3.265Zm19.227 1.17h-.096l-2.835-9.33H77.81l-2.805 9.405h-.095l-1.896-9.406h-4.972l4.063 16.102h4.543l2.82-8.542h.095l2.805 8.542h4.557l4.048-16.102h-4.972l-1.865 9.33Zm15.981-9.63c-2.56-.01-4.53.762-5.905 2.315-1.377 1.552-2.064 3.554-2.064 6.004v.566c0 2.242.757 4.107 2.27 5.596 1.513 1.489 3.54 2.232 6.08 2.232 1.37 0 2.653-.17 3.848-.513 1.195-.342 2.17-.77 2.924-1.287l-1.275-3.066c-.935.368-1.708.625-2.319.774-.611.15-1.427.225-2.446.225-1.01 0-1.816-.266-2.422-.796-.606-.533-.966-1.21-1.084-2.032l.033-.09h9.847v-2.636c0-2.242-.665-4.017-1.992-5.328-1.326-1.31-3.159-1.964-5.495-1.964Zm2.231 6.787h-4.638l-.047-.074c.085-.863.322-1.553.71-2.069.387-.515.969-.773 1.745-.773.764 0 1.326.218 1.689.655.361.436.542 1.061.542 1.874l-.001.387Zm15.843-6.787c-2.561-.01-4.528.762-5.905 2.315-1.375 1.552-2.064 3.554-2.064 6.004v.566c0 2.242.757 4.107 2.271 5.596 1.515 1.489 3.54 2.232 6.079 2.232 1.371 0 2.654-.17 3.85-.513 1.195-.342 2.169-.77 2.923-1.287l-1.274-3.066c-.935.368-1.707.625-2.319.774-.612.15-1.427.225-2.447.225-1.009 0-1.816-.266-2.421-.796-.607-.533-.967-1.21-1.085-2.032l.032-.09h9.848v-2.636c0-2.242-.664-4.017-1.992-5.328-1.328-1.31-3.159-1.964-5.496-1.964Zm2.23 6.787h-4.636l-.048-.074c.086-.863.321-1.553.709-2.069.386-.515.969-.773 1.745-.773.765 0 1.328.218 1.69.655.363.436.542 1.061.542 1.874v.388h-.002v-.001Zm16.323 5.437c-.668 0-1.185-.163-1.546-.49-.36-.328-.542-.795-.542-1.4v-6.526h2.802v-3.483h-2.802V4.57h-5.401v7.166h-2.487v3.483h2.487v7.004c0 1.855.594 3.279 1.784 4.271 1.189.994 2.979 1.209 4.286 1.209.429 0 3.427-.032 3.427-.032V23.63l-2.008.005Z" fill="#1E1B1B"/></svg>