<svg width="48" height="48" fill="none" xmlns="http://www.w3.org/2000/svg"><path d="M18.66 18.16a.5.5 0 0 0-.5-.5.52.52 0 0 0-.5.5c0 .56 1 .56 1 0ZM29.84 29.34a.5.5 0 0 0-.5.5c0 .54 1 .54 1 0a.5.5 0 0 0-.5-.5Z" fill="#6B7CFF"/><path fill-rule="evenodd" clip-rule="evenodd" d="M41.16 16.8a8 8 0 0 0 1.5 2 8 8 0 0 1 2.78 5.2 8 8 0 0 1-2.68 5.1 7.997 7.997 0 0 0-1.5 2 7.757 7.757 0 0 0-.32 2.56 7.74 7.74 0 0 1-1.68 5.5 7.74 7.74 0 0 1-5.5 1.68 7.757 7.757 0 0 0-2.56.32 8.397 8.397 0 0 0-2 1.5 7.86 7.86 0 0 1-5.2 2.78 7.86 7.86 0 0 1-5.1-2.68 8.4 8.4 0 0 0-2-1.5 7.757 7.757 0 0 0-2.56-.32 7.74 7.74 0 0 1-5.5-1.68 7.74 7.74 0 0 1-1.68-5.5 7.76 7.76 0 0 0-.32-2.56 7.998 7.998 0 0 0-1.5-2A8 8 0 0 1 2.56 24a8 8 0 0 1 2.68-5.1 8.002 8.002 0 0 0 1.5-2 7.76 7.76 0 0 0 .32-2.56 7.74 7.74 0 0 1 1.68-5.5 7.74 7.74 0 0 1 5.5-1.68 7.76 7.76 0 0 0 2.56-.32 8.403 8.403 0 0 0 2-1.5A7.86 7.86 0 0 1 24 2.56a7.86 7.86 0 0 1 5.1 2.68 8.399 8.399 0 0 0 2 1.5 7.76 7.76 0 0 0 2.56.32 7.74 7.74 0 0 1 5.5 1.68 7.74 7.74 0 0 1 1.68 5.5c-.037.865.071 1.73.32 2.56Zm-23-3.14a4.5 4.5 0 1 0 0 9 4.5 4.5 0 0 0 0-9Zm.58 18.5a2 2 0 0 1-1.4.58A2 2 0 0 1 16 32a2 2 0 0 1 0-2.82L29.26 16A2 2 0 1 1 32 18.74L18.74 32.16Zm6.6-2.24a4.5 4.5 0 0 0 4.5 4.5v-.08a4.5 4.5 0 0 0 4.5-4.42 4.5 4.5 0 0 0-9 0Z" fill="#6B7CFF"/></svg>