<svg width="48" height="48" fill="none" xmlns="http://www.w3.org/2000/svg"><path fill-rule="evenodd" clip-rule="evenodd" d="M38 4H10a6 6 0 0 0-6 6v28a6 6 0 0 0 6 6h28a6 6 0 0 0 6-6V10a6 6 0 0 0-6-6ZM15.84 34.76a2 2 0 0 1-.42.66 2.3 2.3 0 0 1-.66.42A2 2 0 0 1 14 36a2.1 2.1 0 0 1-1.42-.58 2 2 0 0 1-.42-.66 1.88 1.88 0 0 1 0-1.52 2 2 0 0 1 .42-.66 2 2 0 0 1 2.18-.42 2.3 2.3 0 0 1 .66.42 2 2 0 0 1 .42.66 1.88 1.88 0 0 1 0 1.52Zm.04-10a1.28 1.28 0 0 0 .12-.36c.01-.133.01-.267 0-.4a2.1 2.1 0 0 0-.58-1.42 2.3 2.3 0 0 0-.66-.42 2 2 0 0 0-2.18.42 1.86 1.86 0 0 0-.42.66A2 2 0 0 0 12 24a2 2 0 0 0 .58 1.42A2.1 2.1 0 0 0 14 26a2 2 0 0 0 .8-.16 2.3 2.3 0 0 0 .66-.42l.24-.3a1.52 1.52 0 0 0 .18-.36Zm-.46-9.34a2.3 2.3 0 0 1-.66.42A1.679 1.679 0 0 1 14 16a2.1 2.1 0 0 1-1.42-.58A2 2 0 0 1 12 14a2 2 0 0 1 .16-.76 2.3 2.3 0 0 1 .42-.66 2 2 0 0 1 2.18-.42 2.3 2.3 0 0 1 .66.42 2.3 2.3 0 0 1 .42.66A2 2 0 0 1 16 14a2.1 2.1 0 0 1-.58 1.42ZM22 36h12a2 2 0 1 0 0-4H22a2 2 0 1 0 0 4Zm12-10H22a2 2 0 1 1 0-4h12a2 2 0 1 1 0 4ZM22 16h12a2 2 0 1 0 0-4H22a2 2 0 1 0 0 4Z" fill="#6B7CFF"/></svg>